<svg width="25" height="25" viewBox="0 0 25 25" fill="none" xmlns="http://www.w3.org/2000/svg">
<g id="vuesax/linear/information">
<g id="information">
<path id="Vector" d="M11.2499 2.95001C11.9499 2.36001 13.0799 2.36001 13.7599 2.95001L15.3399 4.30001C15.6399 4.55001 16.2099 4.76001 16.6099 4.76001H18.3099C19.3699 4.76001 20.2399 5.63001 20.2399 6.69001V8.39001C20.2399 8.79001 20.4499 9.35001 20.6999 9.65001L22.0499 11.23C22.6399 11.93 22.6399 13.06 22.0499 13.74L20.6999 15.32C20.4499 15.62 20.2399 16.18 20.2399 16.58V18.28C20.2399 19.34 19.3699 20.21 18.3099 20.21H16.6099C16.2099 20.21 15.6499 20.42 15.3499 20.67L13.7699 22.02C13.0699 22.61 11.9399 22.61 11.2599 22.02L9.67988 20.67C9.37988 20.42 8.80988 20.21 8.41988 20.21H6.66988C5.60988 20.21 4.73988 19.34 4.73988 18.28V16.57C4.73988 16.18 4.53988 15.61 4.28988 15.32L2.93988 13.73C2.35988 13.04 2.35988 11.92 2.93988 11.23L4.28988 9.64001C4.53988 9.34001 4.73988 8.78001 4.73988 8.39001V6.70001C4.73988 5.64001 5.60988 4.77001 6.66988 4.77001H8.39988C8.79988 4.77001 9.35988 4.56001 9.65988 4.31001L11.2499 2.95001Z" stroke="#292D32" stroke-width="1.5" stroke-linecap="round" stroke-linejoin="round"/>
<path id="Vector_2" d="M12.5 8.63V13.46" stroke="#292D32" stroke-width="1.5" stroke-linecap="round" stroke-linejoin="round"/>
<path id="Vector_3" d="M12.4946 16.5H12.5036" stroke="#292D32" stroke-width="2" stroke-linecap="round" stroke-linejoin="round"/>
</g>
</g>
</svg>
