<svg width="25" height="25" viewBox="0 0 25 25" fill="none" xmlns="http://www.w3.org/2000/svg">
<g id="vuesax/linear/message-question">
<g id="message-question">
<path id="Vector" d="M17.5 18.9301H13.5L9.04999 21.89C8.38999 22.33 7.5 21.8601 7.5 21.0601V18.9301C4.5 18.9301 2.5 16.9301 2.5 13.9301V7.92999C2.5 4.92999 4.5 2.92999 7.5 2.92999H17.5C20.5 2.92999 22.5 4.92999 22.5 7.92999V13.9301C22.5 16.9301 20.5 18.9301 17.5 18.9301Z" stroke="#292D32" stroke-width="1.5" stroke-miterlimit="10" stroke-linecap="round" stroke-linejoin="round"/>
<path id="Vector_2" d="M12.5001 11.86V11.65C12.5001 10.97 12.9201 10.61 13.3401 10.32C13.7501 10.04 14.16 9.68002 14.16 9.02002C14.16 8.10002 13.4201 7.35999 12.5001 7.35999C11.5801 7.35999 10.8401 8.10002 10.8401 9.02002" stroke="#292D32" stroke-width="1.5" stroke-linecap="round" stroke-linejoin="round"/>
<path id="Vector_3" d="M12.4955 14.25H12.5045" stroke="#292D32" stroke-width="1.5" stroke-linecap="round" stroke-linejoin="round"/>
</g>
</g>
</svg>
