<svg width="24" height="25" viewBox="0 0 24 25" fill="none" xmlns="http://www.w3.org/2000/svg">
<g id="path" clip-path="url(#clip0_11_21986)">
<path id="Vector" d="M19.79 7.77L16.76 4.74C15.61 3.59 14.04 3.65 13.27 4.88L11.58 7.55L16.98 12.95L19.65 11.26C20.8 10.53 20.87 8.85 19.79 7.77Z" stroke="#292D32" stroke-width="1.5" stroke-linecap="round" stroke-linejoin="round"/>
<path id="Vector_2" d="M11.58 7.54999L7.64999 7.30999C5.45999 7.17999 4.68999 7.84999 4.44999 9.93999L3.46999 18.26C3.25999 20.01 4.52999 21.27 6.26999 21.06L14.59 20.08C16.68 19.83 17.44 19.07 17.22 16.88L16.99 12.95" stroke="#292D32" stroke-width="1.5" stroke-linecap="round" stroke-linejoin="round"/>
<path id="Vector_3" d="M4.60999 19.92L7.63999 16.88" stroke="#292D32" stroke-width="1.5" stroke-linecap="round" stroke-linejoin="round"/>
</g>
<defs>
<clipPath id="clip0_11_21986">
<rect width="24" height="24" fill="white" transform="translate(0 0.5)"/>
</clipPath>
</defs>
</svg>
