<svg width="24" height="25" viewBox="0 0 24 25" fill="none" xmlns="http://www.w3.org/2000/svg">
<g id="vuesax/linear/profile">
<g id="profile">
<path id="Vector" d="M12.1601 11.37C12.0601 11.36 11.9401 11.36 11.8301 11.37C9.45006 11.29 7.56006 9.34003 7.56006 6.94003C7.56006 4.49003 9.54006 2.50003 12.0001 2.50003C14.4501 2.50003 16.4401 4.49003 16.4401 6.94003C16.4301 9.34003 14.5401 11.29 12.1601 11.37Z" stroke="#1B0D1C" stroke-width="1.5" stroke-linecap="round" stroke-linejoin="round"/>
<path id="Vector_2" d="M7.15997 15.06C4.73997 16.68 4.73997 19.32 7.15997 20.93C9.90997 22.77 14.42 22.77 17.17 20.93C19.59 19.31 19.59 16.67 17.17 15.06C14.43 13.23 9.91997 13.23 7.15997 15.06Z" stroke="#1B0D1C" stroke-width="1.5" stroke-linecap="round" stroke-linejoin="round"/>
</g>
</g>
</svg>
