<svg width="25" height="25" viewBox="0 0 25 25" fill="none" xmlns="http://www.w3.org/2000/svg">
<g id="vuesax/linear/shop-add">
<g id="shop-add">
<path id="Vector" d="M21.51 11.72V16.21C21.51 20.7 19.72 22.5 15.22 22.5H9.83002C9.25002 22.5 8.71998 22.47 8.22998 22.4" stroke="#292D32" stroke-width="1.5" stroke-linecap="round" stroke-linejoin="round"/>
<path id="Vector_2" d="M3.54004 16.02V11.72" stroke="#292D32" stroke-width="1.5" stroke-linecap="round" stroke-linejoin="round"/>
<path id="Vector_3" d="M12.5299 12.5C14.3599 12.5 15.7099 11.0101 15.5299 9.18005L14.8599 2.5H10.1899L9.51991 9.18005C9.33991 11.0101 10.6999 12.5 12.5299 12.5Z" stroke="#292D32" stroke-width="1.5" stroke-linecap="round" stroke-linejoin="round"/>
<path id="Vector_4" d="M18.8301 12.5C20.8501 12.5 22.3301 10.86 22.1301 8.84998L21.85 6.09998C21.49 3.49998 20.4901 2.5 17.8701 2.5H14.8201L15.5201 9.51001C15.7001 11.16 17.1801 12.5 18.8301 12.5Z" stroke="#292D32" stroke-width="1.5" stroke-linecap="round" stroke-linejoin="round"/>
<path id="Vector_5" d="M6.17004 12.5C7.82004 12.5 9.31003 11.16 9.47003 9.51001L9.69006 7.30005L10.17 2.5H7.12005C4.50005 2.5 3.50007 3.49998 3.14007 6.09998L2.86004 8.84998C2.66004 10.86 4.15004 12.5 6.17004 12.5Z" stroke="#292D32" stroke-width="1.5" stroke-linecap="round" stroke-linejoin="round"/>
<path id="Vector_6" d="M9.5 19.5C9.5 20.25 9.28998 20.9601 8.91998 21.5601C8.72998 21.8801 8.49998 22.17 8.22998 22.4C8.19998 22.44 8.17 22.47 8.13 22.5C7.43 23.13 6.51 23.5 5.5 23.5C4.28 23.5 3.18997 22.95 2.46997 22.09C2.44997 22.06 2.42002 22.04 2.40002 22.01C2.28002 21.87 2.17002 21.7201 2.08002 21.5601C1.71002 20.9601 1.5 20.25 1.5 19.5C1.5 18.24 2.08 17.11 3 16.38C3.17 16.24 3.34998 16.12 3.53998 16.02C4.11998 15.69 4.79 15.5 5.5 15.5C6.5 15.5 7.39998 15.86 8.09998 16.47C8.21998 16.56 8.32999 16.67 8.42999 16.78C9.08999 17.5 9.5 18.45 9.5 19.5Z" stroke="#292D32" stroke-width="1.5" stroke-miterlimit="10" stroke-linecap="round" stroke-linejoin="round"/>
<g id="Group">
<path id="Vector_7" d="M6.98999 19.48H4.01001" stroke="#292D32" stroke-width="1.5" stroke-miterlimit="10" stroke-linecap="round" stroke-linejoin="round"/>
<path id="Vector_8" d="M5.5 18.02V21.01" stroke="#292D32" stroke-width="1.5" stroke-miterlimit="10" stroke-linecap="round" stroke-linejoin="round"/>
</g>
</g>
</g>
</svg>
