<svg width="24" height="24" viewBox="0 0 24 24" fill="none" xmlns="http://www.w3.org/2000/svg">
<path id="Star 5" d="M12.6657 1.66697L14.6228 7.69007C14.8504 8.39051 15.5031 8.86475 16.2396 8.86475H22.5726C23.2507 8.86475 23.5327 9.73248 22.9841 10.1311L17.8605 13.8535C17.2647 14.2864 17.0154 15.0538 17.243 15.7542L19.2 21.7773C19.4095 22.4222 18.6714 22.9585 18.1228 22.5599L12.9992 18.8374C12.4034 18.4045 11.5966 18.4045 11.0008 18.8374L5.87721 22.5599C5.32861 22.9585 4.59047 22.4222 4.80002 21.7773L6.75704 15.7542C6.98463 15.0538 6.73531 14.2864 6.13948 13.8535L1.01592 10.1311C0.467323 9.73248 0.749268 8.86475 1.42737 8.86475H7.76044C8.49692 8.86475 9.14965 8.39051 9.37724 7.69007L11.3343 1.66697C11.5438 1.02205 12.4562 1.02205 12.6657 1.66697Z" stroke="#3F6698"/>
</svg>
