<svg width="24" height="24" viewBox="0 0 24 24" fill="none" xmlns="http://www.w3.org/2000/svg">
<path id="Star 1" d="M10.8587 1.51246C11.218 0.40689 12.782 0.406888 13.1413 1.51246L15.0983 7.53557C15.2589 8.02999 15.7197 8.36475 16.2396 8.36475H22.5726C23.7351 8.36475 24.2184 9.85228 23.278 10.5356L18.1544 14.258C17.7338 14.5636 17.5578 15.1053 17.7185 15.5997L19.6755 21.6228C20.0347 22.7284 18.7694 23.6477 17.8289 22.9644L12.7053 19.242C12.2848 18.9364 11.7152 18.9364 11.2947 19.242L6.1711 22.9644C5.23064 23.6477 3.96527 22.7284 4.32449 21.6228L6.28151 15.5997C6.44216 15.1053 6.26617 14.5636 5.84559 14.258L0.722031 10.5356C-0.218425 9.85228 0.264904 8.36475 1.42737 8.36475H7.76044C8.28031 8.36475 8.74106 8.02999 8.90171 7.53557L10.8587 1.51246Z" fill="#3F6698"/>
</svg>
